<svg width="218" height="156" viewBox="0 0 218 156" fill="none" xmlns="http://www.w3.org/2000/svg">
<path fill-rule="evenodd" clip-rule="evenodd" d="M91.2508 0.325897C89.3269 0.778685 87.9293 1.5732 86.2794 3.15095C84.4084 4.94024 83.8292 6.04572 83.8292 7.82817C83.8292 10.8682 87.052 13.5466 92.0023 14.621C94.8339 15.2354 96.4731 16.0518 96.4731 16.8474C96.4731 17.1091 95.8693 17.8015 95.1315 18.3862C94.3421 19.0112 93.6993 19.8604 93.5701 20.4482C93.2455 21.9265 94.3763 24.1959 95.9964 25.3181C97.7826 26.5555 98.6557 28.0615 98.3953 29.4564C98.2139 30.4303 98.2409 30.4761 98.6673 29.9195C98.9277 29.5794 99.0904 29.0412 99.0289 28.7234C98.9677 28.4053 98.9059 27.9525 98.8915 27.717C98.8768 27.4819 97.8865 26.3057 96.6905 25.1038C93.8117 22.2108 93.4762 20.3538 95.5829 18.9736C96.0671 18.6561 96.714 18.014 97.0202 17.5469C97.5291 16.7701 97.5304 16.6266 97.0359 15.8717C96.4615 14.9952 93.2875 13.6218 91.8355 13.6218C90.7304 13.6218 87.9405 12.2016 86.4154 10.8624C84.1887 8.90735 84.4566 6.16225 87.1135 3.71309C89.0576 1.92142 90.5086 1.31554 93.3579 1.10572C96.2913 0.889746 96.7274 1.17406 96.1936 2.95549C95.0143 6.8915 96.2531 8.25636 100.942 8.18801C106.136 8.11215 110.54 9.17526 112.445 10.9642C114.419 12.8191 112.385 14.9887 106.896 16.885C102.699 18.3346 100.574 20.333 100.574 22.829C100.574 23.5531 100.885 24.1453 101.599 24.7819C102.85 25.8963 102.86 26.1618 101.729 28.4128L100.834 30.1956L101.761 29.3413C102.854 28.3352 103.649 26.9129 103.649 25.9657C103.649 25.5942 103.094 24.8329 102.416 24.2734C101.22 23.2879 101.195 23.2192 101.587 22.0317C102.167 20.2739 103.976 18.9579 107.509 17.7246C109.206 17.1317 111.129 16.2835 111.782 15.8396C117.713 11.8096 112.163 7.1536 101.407 7.13481C98.3817 7.12968 97.8756 7.0422 97.1918 6.40488C96.6423 5.89297 96.4806 5.46786 96.6402 4.95254C96.7639 4.55203 96.9529 3.46944 97.0599 2.54678C97.2191 1.17065 97.1412 0.786887 96.6272 0.410987C95.9294 -0.099553 93.2376 -0.141927 91.2508 0.325897ZM58.892 0.694619C57.6751 0.868216 55.7526 1.46692 54.6198 2.02462C51.1393 3.73804 49.3893 5.77166 47.7271 10.0337C46.866 12.2426 46.7939 12.8054 46.7874 17.3808C46.7826 20.7817 47.0115 23.8364 47.5176 27.12C48.4328 33.0572 48.7762 37.3831 48.4745 39.1686L48.2435 40.5352L46.1309 40.7683C39.9511 41.4504 35.8046 43.0257 34.043 45.3607C32.7513 47.0728 31.708 48.06 29.3237 49.8271C26.8247 51.6793 23.4911 54.4158 22.2688 55.619C21.1124 56.757 17.7399 60.883 16.5076 62.6672C15.8799 63.5758 14.7477 64.4855 13.1659 65.3528C10.1812 66.9887 7.5407 69.2734 6.41607 71.1926C3.87772 75.5236 2.48314 82.5089 3.17787 87.4089C3.85551 92.1876 7.13609 98.3243 9.97858 100.13C13.5841 102.422 18.0932 104.068 21.6756 104.401C23.8684 104.605 24.055 104.694 25.8347 106.404C28.3717 108.842 31.2743 110.758 35.2288 112.604C37.0557 113.457 38.7783 114.271 39.0572 114.412C40.0137 114.897 40.4634 119.334 40.558 129.218C40.6195 135.612 40.773 138.832 41.0289 139.088C41.4113 139.47 41.5979 139.42 43.1637 138.515C45.0206 137.44 47.6417 138.024 50.3923 140.123C53.9585 142.846 56.4036 142.556 54.9909 139.579C54.1082 137.719 54.2773 136.17 55.5164 134.759C56.7313 133.375 58.132 132.549 59.2932 132.531C60.0515 132.519 60.0433 132.488 59.054 131.665C58.4902 131.196 57.183 130.323 56.1493 129.725C52.6921 127.724 50.4045 126.076 49.6859 125.066C49.0708 124.202 48.9731 123.567 48.9731 120.438V116.81L49.9128 117.073C50.72 117.299 54.5859 117.293 62.3004 117.053L64.1799 116.994L64.2667 118.703C64.374 120.824 65.3124 128.987 65.7396 131.518C65.9142 132.551 66.233 134.602 66.4479 136.075C66.9165 139.284 67.3935 139.646 68.8414 137.889C69.9281 136.571 71.7259 135.875 75.1596 135.444C76.6219 135.26 77.1891 135.363 78.5769 136.066C82.9154 138.261 84.9521 137.833 83.1458 135.106C82.3745 133.941 82.2368 131.6 82.8895 130.75C83.1246 130.444 83.7766 130.145 84.3387 130.087C86.262 129.886 85.7511 129.001 82.7811 127.39C78.5772 125.109 74.0316 122.042 73.2699 120.972C72.6534 120.106 71.552 115.605 71.8954 115.355C71.9747 115.297 73.6393 114.523 75.5946 113.635C77.55 112.747 79.872 111.49 80.7547 110.842C83.8306 108.584 87.6009 101.858 88.8953 96.3198C89.535 93.5836 90.0343 88.5831 89.7954 87.3088C89.5224 85.8537 89.6666 85.8165 91.8451 86.7801C93.3808 87.4595 94.3185 88.2991 96.9652 91.3647C97.9555 92.5116 98.2446 92.6712 98.7617 92.3564C99.8039 91.7215 100.222 90.4448 100.227 87.8788C100.24 81.4345 97.1125 75.2236 87.8773 63.3561C84.4166 58.9089 83.4988 57.4845 82.4459 54.9267C80.9963 51.4059 77.7783 45.7811 76.4776 44.4955C75.0711 43.105 73.3211 42.2257 70.0925 41.2877C67.7011 40.5926 67.4482 40.4317 66.9609 39.2934C65.5936 36.1023 65.2871 31.0984 66.2545 27.7707C66.7743 25.9821 66.8297 25.924 68.009 25.924C68.6787 25.924 69.7825 25.7579 70.4622 25.5553C71.6026 25.2146 72.0321 25.3321 76.03 27.077C80.9984 29.2456 83.6915 30.0247 86.2193 30.0247C87.7454 30.0247 88.4699 30.2919 91.3178 31.9042C93.5855 33.1881 95.0146 33.7837 95.8286 33.7837C97.05 33.7837 97.84 33.2937 97.84 32.5357C97.84 32.3006 95.9178 31.1883 93.5684 30.0647C89.5077 28.122 89.2969 27.9709 89.2969 26.9987C89.2969 26.263 89.0064 25.7528 88.2618 25.1811C87.6924 24.744 86.3467 23.6884 85.2717 22.8355C84.1962 21.9829 82.3598 20.5548 81.1907 19.6622C79.0737 18.0465 78.3517 16.791 78.4046 14.8179C78.5184 10.5845 77.2096 7.01076 74.7013 4.70752C72.1466 2.36088 70.6861 1.69964 66.0594 0.79543C63.2306 0.242516 62.1634 0.227478 58.892 0.694619ZM68.8189 2.38002C71.4078 3.22989 72.6059 3.98716 74.3723 5.89092C76.2145 7.87636 76.9793 9.53168 77.1348 11.8715L77.2698 13.8966L76.1923 13.5839C73.8532 12.9045 72.5389 13.8262 70.8371 17.3395C69.5413 20.0142 68.5947 20.9724 66.6967 21.5318L65.2051 21.9716L66.3868 22.0953C67.0706 22.1667 68.0472 22.6393 68.7054 23.2172C69.3304 23.766 70.0214 24.2154 70.2404 24.2154C70.5432 24.2154 70.5432 24.3107 70.2411 24.6128C69.6332 25.2207 64.6262 25.3912 62.2047 24.8865C61.0357 24.6429 58.9259 23.916 57.5162 23.2715C54.1731 21.7423 52.3107 21.0762 52.5745 21.5034C52.8824 22.0016 59.6578 25.2405 60.3919 25.2405C60.8846 25.2405 60.9602 25.3998 60.7561 26.0094C60.3611 27.1908 60.1629 33.1737 60.4899 34.0434C60.682 34.5543 60.792 33.5698 60.8153 31.1387C60.8344 29.1164 60.9977 27.0879 61.1785 26.631C61.4844 25.8574 61.6566 25.8064 63.6967 25.8898C64.9013 25.939 65.9347 26.0272 65.9935 26.0856C66.0519 26.1444 65.8431 27.0756 65.529 28.1555C65.107 29.6071 64.9984 30.9737 65.1111 33.4034C65.3534 38.6226 67.1386 42.604 70.9458 46.417L72.9271 48.4018L71.1166 48.8494C68.6511 49.4584 58.3459 49.3617 53.7415 48.6857C51.7766 48.3977 48.9389 48.0659 47.4353 47.9486C45.9317 47.8314 44.6693 47.704 44.6297 47.665C44.5904 47.6261 45.0948 46.9915 45.7502 46.2544C47.8122 43.9368 49.9005 38.5628 49.4771 36.6628C49.3968 36.3009 49.1736 34.1596 48.9816 31.9042C48.7899 29.6488 48.4782 26.727 48.2896 25.4114C47.6858 21.201 47.5286 16.2613 47.9116 13.5323C48.5702 8.83832 51.0883 4.92418 54.6116 3.11883C57.1571 1.81412 57.6516 1.72253 62.3295 1.69075C65.8339 1.66683 67.035 1.7943 68.8189 2.38002ZM59.1599 9.69571C58.9177 9.94244 59.1712 10.3365 60.5101 11.7943C61.1778 12.5211 61.5339 12.6216 63.1267 12.5344C64.7376 12.4459 64.9317 12.3602 64.6614 11.8551C64.1218 10.847 62.2874 9.77739 60.817 9.6137C60.0351 9.5269 59.2898 9.5638 59.1599 9.69571ZM76.2675 14.3411C77.4482 14.7529 78.0137 15.529 78.0308 16.7602C78.0366 17.1956 78.23 17.7991 78.4603 18.1015C78.9716 18.773 83.5808 22.4842 86.387 24.4843C88.6195 26.0754 89.3327 27.4016 88.4371 28.2969C87.9956 28.7388 87.5954 28.7282 85.1134 28.2101C82.192 27.6008 76.0191 25.4609 73.5542 24.2034C71.2673 23.0367 71.6227 23.7041 73.9786 25.001C77.0548 26.6942 82.1507 28.4699 85.1825 28.9049C87.5855 29.2497 87.8138 29.7031 85.4893 29.5142C82.7569 29.292 80.8066 28.6458 75.6278 26.2452C71.6217 24.3886 70.2237 23.592 68.9057 22.4165L68.1638 21.7549L69.273 20.781C69.883 20.2455 70.8993 18.7884 71.5315 17.5431C72.64 15.3592 73.902 13.9635 74.7687 13.9635C74.9969 13.9635 75.6715 14.1334 76.2675 14.3411ZM75.7986 20.0083C76.1745 20.1088 76.6051 20.4044 76.7555 20.6651C77.1539 21.3571 78.093 21.2604 77.9566 20.5418C77.8736 20.1037 77.4782 19.928 76.4794 19.885C75.7289 19.8525 75.4227 19.9082 75.7986 20.0083ZM93.1966 30.5879C96.9915 32.4482 97.7047 33.1003 95.9448 33.1003C95.3335 33.1003 90.1231 30.8332 88.3082 29.7776C88.1709 29.6973 88.951 28.6578 89.1489 28.6578C89.2094 28.6578 91.0308 29.5265 93.1966 30.5879ZM62.0284 42.3269C61.9867 43.9245 61.8777 46.0773 61.7865 47.1111C61.6399 48.7633 61.6624 48.8556 61.9717 47.8735C62.1651 47.2587 62.2741 45.1058 62.2136 43.0893C62.107 39.5281 62.1015 39.5063 62.0284 42.3269ZM72.2105 42.7547C75.0943 43.9446 77.3364 45.874 77.3364 47.1657C77.3364 49.0545 75.8936 50.0841 71.6654 51.2118C63.5771 53.3691 56.8119 53.471 48.6313 51.559C47.0338 51.1855 44.3427 50.5844 42.6511 50.2228C35.8986 48.7794 34.4937 48.1154 34.6899 46.4594C34.8112 45.4328 36.6828 44.0618 39.4047 43.0052C41.0672 42.36 47.1629 41.4282 47.5023 41.7675C47.5733 41.8386 47.4568 42.2808 47.2429 42.7503C46.9159 43.4679 46.5471 43.6371 44.9236 43.8141C43.8615 43.9299 42.4464 44.1797 41.7783 44.3694C40.3984 44.761 38.9625 45.9513 39.1556 46.5435C39.3575 47.1627 42.4563 48.0348 45.9556 48.4564C47.7094 48.668 50.3741 48.9889 51.8777 49.1693C65.0141 50.747 73.6488 50.2153 74.9696 47.7474C75.1422 47.4248 75.2003 46.9429 75.0981 46.6774C74.8541 46.0411 72.7392 44.8775 70.9738 44.4077C69.9052 44.1237 69.3407 43.6928 68.6319 42.6215L67.6976 41.2098L68.6726 41.4534C69.2088 41.5874 70.8009 42.1731 72.2105 42.7547ZM37.0335 49.5083C37.8676 49.7355 38.9348 50.052 39.4047 50.2112C40.8382 50.6975 44.1386 51.4773 48.8022 52.4314C54.8101 53.6606 63.2449 53.9651 67.2606 53.0978C68.7615 52.7735 70.6813 52.3706 71.527 52.2018C72.3728 52.0333 73.9225 51.4725 74.9706 50.9555L76.8764 50.0158L78.297 53.433C79.0782 55.3125 79.8601 57.4654 80.0347 58.2172C80.3231 59.4604 80.795 61.2637 82.8509 68.9816C83.2261 70.3912 83.916 72.987 84.3838 74.7496C84.8517 76.5126 85.6168 78.9105 86.0846 80.0782L86.9345 82.202L84.7167 85.6999L82.4985 89.1982L81.2386 86.6933C79.5142 83.2654 77.728 80.5292 77.362 80.7551C77.1953 80.8583 75.8721 82.8769 74.4218 85.2406C72.9719 87.6044 71.6709 89.4111 71.5311 89.2556C71.3914 89.0998 70.8494 87.8193 70.3262 86.4097C69.2942 83.6277 67.8627 80.6003 67.5794 80.6003C67.482 80.6003 67.5435 80.8696 67.7158 81.1983C67.8883 81.5271 68.7591 83.8368 69.6506 86.3307C70.5422 88.8247 71.3835 90.9341 71.5199 91.0185C71.756 91.1645 75.2379 85.2738 76.5163 82.5653C76.8491 81.8606 77.223 81.2838 77.347 81.2838C77.4714 81.2838 78.6903 83.435 80.0562 86.0642C82.2675 90.3208 83.1458 91.444 83.1458 90.0156C83.1458 89.7654 84.2297 87.9222 85.5546 85.9196C86.8795 83.9168 88.0923 81.9392 88.2498 81.5247C89.3614 78.6009 89.0887 92.5608 87.9522 96.7705C86.6263 101.681 82.9083 108.131 80.3043 110.04C78.4562 111.394 72.1391 114.368 70.1741 114.808C69.3362 114.996 67.5678 115.294 66.2443 115.471C64.9211 115.648 62.3759 116.004 60.5887 116.263C56.7658 116.816 50.1712 116.523 46.4381 115.636C38.359 113.714 29.8018 109.423 26.1426 105.46L25.3532 104.605L26.9969 104.373C30.9586 103.815 36.8045 102.477 39.4047 101.535C41.8778 100.638 46.0711 98.0831 47.6916 96.4858C48.5158 95.6732 49.6996 94.0524 50.3222 92.8837C51.4171 90.8296 51.4489 90.6591 51.2814 87.724C51.1864 86.0546 51.2202 84.6197 51.3569 84.5353C51.4936 84.4509 51.8791 83.6461 52.2137 82.7474C53.0803 80.4185 53.2648 80.3451 54.1567 81.973C54.5948 82.7727 55.1071 83.6762 55.295 83.9814C55.483 84.2865 56.7702 86.4186 58.1556 88.7191C59.5406 91.0199 60.8081 92.9025 60.9718 92.9025C61.3074 92.9025 64.5394 86.5905 66.2651 82.5653C68.2567 77.9198 67.0108 79.745 64.0976 85.7399C62.5488 88.9275 61.1649 91.5284 61.022 91.5199C60.8795 91.5113 59.9264 90.0921 58.9043 88.3661C56.7713 84.7629 53.423 79.9169 53.0669 79.9169C52.934 79.9169 52.3989 80.8782 51.8777 82.0527C51.3566 83.2275 50.8782 84.2486 50.8146 84.3224C50.6803 84.4776 49.7006 83.344 48.4704 81.6105C47.8563 80.7456 47.4209 79.3469 46.947 76.719C45.8445 70.6051 43.3739 66.4443 39.5127 64.1984L37.4586 63.0038L38.0774 62.1481C38.9772 60.9052 39.565 58.3669 39.2297 57.1719C38.9628 56.2201 38.9352 56.2574 38.7079 57.8755C38.3262 60.596 37.5197 62.0538 35.2472 64.1332C27.4179 71.2971 22.9191 76.3359 21.3079 79.746C19.2264 84.1505 17.8759 87.1157 17.8759 87.2818C17.8759 87.3771 17.0469 89.1862 16.0336 91.3022C13.471 96.6533 12.7473 97.1201 12.1048 93.8364C10.6176 86.2378 10.7912 77.4424 12.5292 72.3233C15.3492 64.0166 21.5959 56.3599 30.9709 49.7188C32.2527 48.8105 33.3835 47.8533 33.4843 47.5915C33.6193 47.2396 33.9084 47.3739 34.5915 48.1052C35.1013 48.6509 36.1976 49.2807 37.0335 49.5083ZM81.9316 55.6737C82.5341 57.0943 83.6621 59.0934 84.4382 60.1162C96.2093 75.6279 97.6579 77.9618 99.0624 83.6759C99.8986 87.0781 99.4848 92.1377 98.3991 91.7806C98.1855 91.7105 97.337 90.7684 96.5135 89.6875C94.922 87.5979 92.547 85.8721 90.7957 85.5325C89.7513 85.3298 89.7271 85.2796 89.5056 82.8978C89.3816 81.5623 89.2118 80.4011 89.128 80.3177C89.0447 80.2343 88.5936 80.4168 88.1258 80.7233L87.2752 81.2807L86.3761 78.4628C85.8816 76.9131 85.164 74.492 84.7816 73.0823C84.3989 71.6727 83.7106 69.1354 83.2517 67.4438C82.7928 65.7523 82.0297 62.9084 81.556 61.1243C80.4113 56.8103 79.4965 54.1848 78.3137 51.8197C77.2335 49.659 77.144 49.1488 77.7393 48.5535C78.0489 48.2439 78.4549 48.7237 79.4893 50.6209C80.2305 51.9797 81.3295 54.2535 81.9316 55.6737ZM53.0738 59.3729C53.0738 60.1247 53.2276 60.8348 53.4155 60.951C53.6216 61.0785 53.7572 60.6195 53.7572 59.7953C53.7572 59.0435 53.6035 58.3334 53.4155 58.2172C53.2094 58.0897 53.0738 58.5487 53.0738 59.3729ZM49.1883 60.5239C48.8764 61.6888 48.9426 63.6216 49.3148 64.1974C49.5454 64.5545 49.6476 63.9582 49.6514 62.2325C49.6568 59.6562 49.5383 59.2188 49.1883 60.5239ZM50.7159 62.0616C50.7347 62.7666 50.8731 63.7275 51.0234 64.1974C51.2267 64.8324 51.3057 64.5033 51.331 62.9159C51.3504 61.6973 51.2185 60.7802 51.0234 60.7802C50.8355 60.7802 50.6971 61.357 50.7159 62.0616ZM58.5684 61.6628C58.5848 62.061 58.6658 62.1419 58.7748 61.8696C58.8736 61.6229 58.8613 61.3279 58.7478 61.2145C58.6344 61.101 58.5537 61.3027 58.5684 61.6628ZM41.6034 66.9367C44.3553 69.8219 45.8842 73.3147 46.4104 77.9195C46.5181 78.8606 46.9784 80.4025 47.4336 81.3456C48.2035 82.9418 48.2236 83.1171 47.7237 83.8802C46.582 85.6227 48.3873 90.1492 50.0505 89.7142C50.9458 89.4801 50.8467 90.126 49.6333 92.4405C47.9103 95.7272 45.9621 97.3624 40.5949 100.027C38.142 101.245 36.6251 101.708 30.1781 103.208C27.6192 103.803 20.513 103.795 18.5593 103.194C13.2387 101.558 10.0715 99.7258 8.27336 97.2435C3.31763 90.4021 2.55524 82.8803 5.95577 74.372C7.42109 70.7053 10.4946 67.4302 13.566 66.2621L14.434 65.9324L13.7967 67.2005C12.1807 70.4162 11.2143 73.1565 10.7984 75.7034C10.4505 77.833 10.4488 88.0695 10.796 90.5104C11.3752 94.5828 11.4945 95.1565 11.9521 96.0635C13.2062 98.5509 14.9804 96.3563 18.6547 87.7718C21.5283 81.0575 23.0056 78.103 24.2751 76.5317C27.0239 73.1285 29.8275 70.1647 33.3746 66.9118L37.0837 63.5102L38.4325 64.2682C39.174 64.6851 40.6011 65.8859 41.6034 66.9367ZM53.5994 65.2018C53.2764 65.7243 53.7347 68.9816 54.1311 68.9816C54.3013 68.9816 54.4383 68.2513 54.4356 67.3584C54.4298 65.5944 54.0159 64.5275 53.5994 65.2018ZM55.917 66.9312C55.917 68.1529 55.9791 68.6529 56.0547 68.0419C56.1305 67.4308 56.1305 66.4316 56.0547 65.8206C55.9791 65.2096 55.917 65.7096 55.917 66.9312ZM51.3651 67.6348C51.3651 68.0217 51.5189 68.2435 51.7069 68.1273C51.8948 68.0111 52.0486 67.6947 52.0486 67.4237C52.0486 67.1527 51.8948 66.9312 51.7069 66.9312C51.5189 66.9312 51.3651 67.248 51.3651 67.6348ZM58.6439 70.3485C58.6439 71.3822 58.7078 71.8049 58.7861 71.2883C58.8643 70.7716 58.8643 69.9255 58.7861 69.4088C58.7078 68.8921 58.6439 69.3148 58.6439 70.3485ZM53.7572 71.3334C53.7572 72.0852 53.911 72.7953 54.099 72.9115C54.305 73.0389 54.4407 72.58 54.4407 71.7558C54.4407 71.004 54.2869 70.2938 54.099 70.1777C53.8929 70.0502 53.7572 70.5091 53.7572 71.3334ZM52.0537 73.6804C52.051 74.479 52.2024 75.1327 52.3903 75.1327C52.8264 75.1327 52.8264 73.4152 52.3903 72.7406C52.1477 72.365 52.0578 72.6169 52.0537 73.6804ZM55.4898 74.8764C55.5076 76.1941 55.592 76.489 55.8076 75.987C56.2187 75.0302 56.2187 73.0823 55.8076 73.0823C55.6196 73.0823 55.4768 73.8898 55.4898 74.8764ZM41.1455 77.9987C39.9839 79.3981 42.0268 83.6588 43.4354 82.7747C44.4424 82.1425 44.7278 80.7374 44.1738 79.135C43.7498 77.9079 43.5208 77.6806 42.6221 77.5928C41.996 77.5316 41.3963 77.6967 41.1455 77.9987ZM43.298 78.7488C43.6329 79.6213 43.5519 79.746 42.6511 79.746C41.9929 79.746 41.7968 79.5693 41.7968 78.9771C41.7968 78.0702 42.9693 77.8918 43.298 78.7488ZM43.5054 81.4546C43.5054 82.4781 42.6631 82.6056 42.1566 81.659C41.8607 81.1061 41.9099 81.0357 42.486 81.1864C42.863 81.2848 43.1637 81.1942 43.1637 80.982C43.1637 80.7719 43.2406 80.6003 43.3346 80.6003C43.4285 80.6003 43.5054 80.9848 43.5054 81.4546ZM30.1224 82.7361C29.1464 83.5258 28.4694 84.8453 28.4694 85.9569C28.4694 88.6914 30.3185 90.0146 31.7743 88.322C32.8473 87.0743 32.9119 84.0176 31.8867 82.9924C31.0888 82.1945 30.8373 82.1579 30.1224 82.7361ZM31.7155 84.0169C32.2964 85.8472 31.8652 87.9707 30.8472 88.2936C29.9173 88.5889 29.5541 88.2711 29.3053 86.9435C28.8812 84.6829 31.0799 82.0134 31.7155 84.0169ZM29.7523 85.4699C29.4782 86.2156 29.8674 86.7514 30.6825 86.7514C31.4978 86.7514 31.897 86.2156 31.6369 85.4699C31.5552 85.2352 31.1329 85.0428 30.6989 85.0428C30.2645 85.0428 29.8387 85.2352 29.7523 85.4699ZM41.9676 85.949C37.8177 88.1241 35.6457 90.3573 35.6457 92.4497C35.6457 93.9386 36.6576 94.389 38.9769 93.9321C44.0139 92.9397 46.1811 91.4399 46.4829 88.7375C46.7986 85.9121 44.6133 84.5627 41.9676 85.949ZM44.9308 86.6335C45.7776 87.3997 45.7277 87.6074 44.4869 88.4911C43.4367 89.2392 36.8749 92.219 36.2782 92.219C35.6529 92.219 37.3564 89.5642 38.5982 88.6032C39.5872 87.8381 42.9593 86.3174 44.1619 86.0946C44.2412 86.0799 44.587 86.3225 44.9308 86.6335ZM45.5575 89.4811C45.32 90.0549 44.6857 90.8942 44.1486 91.3463C42.8684 92.4234 39.7577 93.3085 37.7538 93.166L36.1583 93.0525L37.5252 92.4429C41.7971 90.5384 44.9362 88.9658 45.2715 88.5619C45.8743 87.8354 46.0308 88.3384 45.5575 89.4811ZM22.5811 91.6227C21.4784 92.5293 20.6094 94.4837 20.6111 96.0525C20.6148 99.5166 24.6746 101.065 28.0149 98.8759C30.6838 97.1273 30.854 93.0706 28.328 91.4153C26.9915 90.5398 23.7567 90.6563 22.5811 91.6227ZM45.8288 116.299C48.0559 116.675 48.0883 116.74 48.1044 120.844C48.1177 124.319 48.1779 124.642 49.012 125.735C49.5277 126.41 51.1885 127.617 52.9419 128.591C54.6119 129.519 56.5013 130.625 57.1403 131.049L58.3025 131.821L55.4047 131.784C53.8112 131.764 52.31 131.869 52.0694 132.017C51.3942 132.435 51.8149 134.066 53.5255 137.662C54.3734 139.444 54.9936 141.021 54.9044 141.165C54.3529 142.058 51.7677 140.467 46.8137 136.187C45.7618 135.278 44.7401 134.635 44.5426 134.757C44.3454 134.879 43.9363 135.468 43.6339 136.067C42.9218 137.477 41.7773 138.722 41.4055 138.492C40.9804 138.23 41.0481 133.201 41.5207 129.932C41.86 127.586 41.832 126.211 41.3546 121.713C41.0392 118.742 40.6869 115.974 40.5714 115.563L40.3612 114.815L42.4556 115.449C43.6073 115.798 45.1252 116.18 45.8288 116.299ZM71.6788 117.959C71.8066 119.153 72.2006 120.606 72.5543 121.187C73.2777 122.377 77.4071 125.286 80.3467 126.676C83.169 128.012 84.8876 129.138 84.6613 129.503C84.553 129.678 83.481 129.781 82.2795 129.73C80.5855 129.659 79.9633 129.77 79.5094 130.224C78.7546 130.978 79.0775 131.688 81.4214 134.422C83.1649 136.457 83.1717 136.474 82.2873 136.583C81.797 136.643 81.213 136.545 80.9895 136.364C80.1714 135.702 72.0892 132.201 71.3917 132.206C70.0457 132.216 69.3742 133.121 68.9866 135.448C68.8612 136.199 68.4706 137.195 68.1183 137.66L67.4779 138.506L67.3026 137.66C67.2059 137.195 67.0357 136.122 66.924 135.277C66.8126 134.431 66.5706 132.662 66.3868 131.347C65.4836 124.881 64.9871 116.724 65.4781 116.411C65.7037 116.268 66.6574 116.133 67.5972 116.111C68.5369 116.089 69.6903 115.957 70.1601 115.818C70.63 115.678 71.1115 115.615 71.2304 115.677C71.3493 115.738 71.551 116.765 71.6788 117.959ZM82.0997 130.873C81.8872 131.27 81.7741 132.116 81.8482 132.753C81.9227 133.389 81.9507 133.91 81.9108 133.91C81.7488 133.91 79.7285 131.023 79.7285 130.792C79.7285 130.505 80.5743 130.248 81.7054 130.19C82.3974 130.155 82.4425 130.233 82.0997 130.873ZM56.42 132.543C56.7631 132.543 56.5122 132.977 55.701 133.788C55.0158 134.474 54.3648 135.319 54.2541 135.668C54.1434 136.016 53.9305 136.302 53.7805 136.302C53.4958 136.302 52.3903 133.662 52.3903 132.982C52.3903 132.5 53.5956 132.225 54.9106 132.407C55.4508 132.482 56.1302 132.543 56.42 132.543ZM74.0401 133.989L75.4569 134.73L73.4065 135.113C72.2788 135.324 71.0203 135.678 70.6098 135.9C69.5378 136.477 69.3762 136.406 69.6134 135.463C70.1892 133.168 70.4356 132.863 71.5561 133.061C72.1428 133.164 73.2606 133.582 74.0401 133.989ZM46.3226 136.889C46.893 137.519 46.8591 137.539 45.212 137.564L43.5136 137.59L44.0833 136.625C44.697 135.586 45.1973 135.645 46.3226 136.889Z" fill="url(#paint0_linear_110_12)"/>
<g filter="url(#filter0_d_110_12)">
<path d="M5.08 99.984H20.248V104.848H11.96V109.296H19.64V113.328H11.96V122H5.08V99.984ZM30.6068 122.256C28.8361 122.256 27.2574 121.904 25.8708 121.2C24.5054 120.475 23.4388 119.493 22.6708 118.256C21.9028 116.997 21.5188 115.579 21.5188 114C21.5188 112.379 21.9134 110.939 22.7028 109.68C23.4921 108.421 24.5588 107.451 25.9028 106.768C27.2468 106.085 28.7401 105.744 30.3828 105.744C31.9614 105.744 33.3054 106.096 34.4148 106.8C35.5454 107.483 36.3881 108.421 36.9428 109.616C37.4974 110.789 37.7748 112.112 37.7748 113.584C37.7748 113.968 37.7534 114.245 37.7108 114.416L28.1108 115.664C28.3668 116.411 28.7828 116.955 29.3588 117.296C29.9348 117.616 30.6921 117.776 31.6308 117.776C33.0814 117.776 34.6494 117.403 36.3348 116.656L37.1348 120.944C35.1508 121.819 32.9748 122.256 30.6068 122.256ZM32.8148 111.632C32.4734 110.288 31.6628 109.616 30.3828 109.616C29.6148 109.616 29.0068 109.904 28.5588 110.48C28.1108 111.056 27.8761 111.803 27.8548 112.72L32.8148 111.632ZM40.1 106.192H46.852V109.456C47.3427 108.197 48.004 107.269 48.836 106.672C49.6893 106.053 50.6813 105.744 51.812 105.744L52.74 110.96C50.7133 110.96 49.22 111.184 48.26 111.632C47.3213 112.059 46.852 112.741 46.852 113.68V122H40.1V106.192ZM61.3893 122.256C59.9386 122.256 58.6159 121.872 57.4213 121.104C56.2479 120.336 55.3199 119.323 54.6373 118.064C53.9546 116.784 53.6133 115.429 53.6133 114C53.6133 112.485 53.9653 111.099 54.6693 109.84C55.3946 108.56 56.3546 107.557 57.5493 106.832C58.7653 106.107 60.0559 105.744 61.4213 105.744C62.6586 105.744 63.7039 106 64.5573 106.512C65.4319 107.024 66.1359 107.845 66.6693 108.976V100.912L73.4213 99.92V122H66.6693V119.024C65.6666 121.179 63.9066 122.256 61.3893 122.256ZM63.5013 117.2C64.3973 117.2 65.1439 116.88 65.7413 116.24C66.3599 115.6 66.6693 114.853 66.6693 114V113.872C66.6693 113.04 66.3493 112.325 65.7093 111.728C65.0693 111.109 64.3333 110.8 63.5013 110.8C62.6053 110.8 61.8479 111.12 61.2292 111.76C60.6319 112.379 60.3333 113.125 60.3333 114C60.3333 114.896 60.6426 115.653 61.2613 116.272C61.9013 116.891 62.6479 117.2 63.5013 117.2ZM82.3258 122.256C80.5338 122.256 79.1364 121.68 78.1338 120.528C77.1311 119.376 76.6298 117.808 76.6298 115.824V105.968H83.4138V115.536C83.4138 116.027 83.5418 116.411 83.7978 116.688C84.0751 116.944 84.4271 117.072 84.8538 117.072C85.2804 117.072 85.7178 116.944 86.1658 116.688L86.5178 121.136C86.0484 121.499 85.4298 121.776 84.6618 121.968C83.9151 122.16 83.1364 122.256 82.3258 122.256ZM80.0218 103.568C79.0191 103.568 78.1658 103.259 77.4618 102.64C76.7791 102 76.4378 101.221 76.4378 100.304C76.4378 99.3867 76.8004 98.6187 77.5258 98C78.2511 97.3813 79.0831 97.072 80.0218 97.072C81.0031 97.072 81.8458 97.392 82.5498 98.032C83.2751 98.672 83.6378 99.4293 83.6378 100.304C83.6378 101.243 83.2751 102.021 82.5498 102.64C81.8244 103.259 80.9818 103.568 80.0218 103.568ZM88.3813 106.192H94.8133V109.456C96.0506 106.981 98.0133 105.744 100.701 105.744C102.749 105.744 104.349 106.48 105.501 107.952C106.675 109.403 107.261 111.419 107.261 114V122H100.541V113.328C100.541 112.411 100.339 111.707 99.9333 111.216C99.5493 110.725 99.0053 110.48 98.3013 110.48C97.7893 110.48 97.2879 110.651 96.7973 110.992C96.3066 111.312 95.9013 111.781 95.5813 112.4C95.2826 113.019 95.1333 113.723 95.1333 114.512V122H88.3813V106.192ZM117.422 122.256C116.035 122.256 114.734 121.893 113.518 121.168C112.323 120.421 111.363 119.419 110.638 118.16C109.913 116.88 109.55 115.461 109.55 113.904C109.55 112.368 109.913 110.981 110.638 109.744C111.363 108.485 112.334 107.504 113.55 106.8C114.766 106.096 116.057 105.744 117.422 105.744C118.531 105.744 119.555 106.053 120.494 106.672C121.454 107.291 122.179 108.219 122.67 109.456V105.744H129.39V122H122.67V119.024C121.603 121.179 119.854 122.256 117.422 122.256ZM119.502 117.2C120.355 117.2 121.081 116.901 121.678 116.304C122.297 115.685 122.627 114.96 122.67 114.128V113.872C122.627 113.019 122.286 112.293 121.646 111.696C121.027 111.099 120.313 110.8 119.502 110.8C118.606 110.8 117.838 111.12 117.198 111.76C116.579 112.379 116.27 113.125 116.27 114C116.27 114.896 116.59 115.653 117.23 116.272C117.87 116.891 118.627 117.2 119.502 117.2ZM132.631 106.192H139.063V109.456C140.301 106.981 142.263 105.744 144.951 105.744C146.999 105.744 148.599 106.48 149.751 107.952C150.925 109.403 151.511 111.419 151.511 114V122H144.791V113.328C144.791 112.411 144.589 111.707 144.183 111.216C143.799 110.725 143.255 110.48 142.551 110.48C142.039 110.48 141.538 110.651 141.047 110.992C140.557 111.312 140.151 111.781 139.831 112.4C139.533 113.019 139.383 113.723 139.383 114.512V122H132.631V106.192ZM161.608 122.256C160.157 122.256 158.835 121.872 157.64 121.104C156.467 120.336 155.539 119.323 154.856 118.064C154.173 116.784 153.832 115.429 153.832 114C153.832 112.485 154.184 111.099 154.888 109.84C155.613 108.56 156.573 107.557 157.768 106.832C158.984 106.107 160.275 105.744 161.64 105.744C162.877 105.744 163.923 106 164.776 106.512C165.651 107.024 166.355 107.845 166.888 108.976V100.912L173.64 99.92V122H166.888V119.024C165.885 121.179 164.125 122.256 161.608 122.256ZM163.72 117.2C164.616 117.2 165.363 116.88 165.96 116.24C166.579 115.6 166.888 114.853 166.888 114V113.872C166.888 113.04 166.568 112.325 165.928 111.728C165.288 111.109 164.552 110.8 163.72 110.8C162.824 110.8 162.067 111.12 161.448 111.76C160.851 112.379 160.552 113.125 160.552 114C160.552 114.896 160.861 115.653 161.48 116.272C162.12 116.891 162.867 117.2 163.72 117.2ZM183.985 122.256C182.598 122.256 181.297 121.893 180.081 121.168C178.886 120.421 177.926 119.419 177.201 118.16C176.475 116.88 176.113 115.461 176.113 113.904C176.113 112.368 176.475 110.981 177.201 109.744C177.926 108.485 178.897 107.504 180.113 106.8C181.329 106.096 182.619 105.744 183.985 105.744C185.094 105.744 186.118 106.053 187.057 106.672C188.017 107.291 188.742 108.219 189.233 109.456V105.744H195.953V122H189.233V119.024C188.166 121.179 186.417 122.256 183.985 122.256ZM186.065 117.2C186.918 117.2 187.643 116.901 188.241 116.304C188.859 115.685 189.19 114.96 189.233 114.128V113.872C189.19 113.019 188.849 112.293 188.209 111.696C187.59 111.099 186.875 110.8 186.065 110.8C185.169 110.8 184.4 111.12 183.76 111.76C183.142 112.379 182.833 113.125 182.833 114C182.833 114.896 183.153 115.653 183.793 116.272C184.433 116.891 185.19 117.2 186.065 117.2ZM4.625 124.8H9.825L14.125 133.15L18.325 124.8H23.525V142H18.325V132.825L15.15 138.825H13.025L9.825 132.825V142H4.625V124.8ZM30.818 142.2C29.418 142.2 28.3263 141.75 27.543 140.85C26.7596 139.95 26.368 138.725 26.368 137.175V129.475H31.668V136.95C31.668 137.333 31.768 137.633 31.968 137.85C32.1846 138.05 32.4596 138.15 32.793 138.15C33.1263 138.15 33.468 138.05 33.818 137.85L34.093 141.325C33.7263 141.608 33.243 141.825 32.643 141.975C32.0596 142.125 31.4513 142.2 30.818 142.2ZM29.018 127.6C28.2346 127.6 27.568 127.358 27.018 126.875C26.4846 126.375 26.218 125.767 26.218 125.05C26.218 124.333 26.5013 123.733 27.068 123.25C27.6346 122.767 28.2846 122.525 29.018 122.525C29.7846 122.525 30.443 122.775 30.993 123.275C31.5596 123.775 31.843 124.367 31.843 125.05C31.843 125.783 31.5596 126.392 30.993 126.875C30.4263 127.358 29.768 127.6 29.018 127.6ZM39.9488 142.2C38.5322 142.2 37.4322 141.758 36.6488 140.875C35.8822 139.975 35.4988 138.75 35.4988 137.2V125.525L40.7738 124.75V136.825C40.7738 137.292 40.8822 137.633 41.0988 137.85C41.3322 138.05 41.7322 138.15 42.2988 138.15C42.7155 138.15 43.1238 138.05 43.5238 137.85L43.6988 141.35C42.5822 141.917 41.3322 142.2 39.9488 142.2ZM56.7352 147.725C55.8185 147.725 54.9435 147.633 54.1102 147.45L54.5102 143.75C55.1602 143.85 55.7602 143.9 56.3102 143.9C57.3435 143.9 58.1268 143.592 58.6602 142.975C59.1935 142.375 59.5102 141.358 59.6102 139.925C58.6268 141.308 57.1268 142 55.1102 142C54.0102 142 52.9935 141.717 52.0602 141.15C51.1435 140.583 50.4102 139.817 49.8602 138.85C49.3268 137.883 49.0602 136.825 49.0602 135.675C49.0602 134.508 49.3268 133.442 49.8602 132.475C50.3935 131.492 51.1185 130.717 52.0352 130.15C52.9685 129.583 53.9852 129.3 55.0852 129.3C56.1018 129.3 56.9852 129.567 57.7352 130.1C58.5018 130.617 59.0018 131.317 59.2352 132.2V129.3H64.5102V138.825C64.5102 141.742 63.8435 143.95 62.5102 145.45C61.1935 146.967 59.2685 147.725 56.7352 147.725ZM56.7352 138.25C57.4018 138.25 57.9768 138.017 58.4602 137.55C58.9435 137.067 59.2018 136.5 59.2352 135.85V135.65C59.2018 135.017 58.9352 134.458 58.4352 133.975C57.9518 133.492 57.3852 133.25 56.7352 133.25C56.0518 133.25 55.4685 133.5 54.9852 134C54.5018 134.483 54.2602 135.067 54.2602 135.75C54.2602 136.433 54.5018 137.025 54.9852 137.525C55.4685 138.008 56.0518 138.25 56.7352 138.25ZM67.043 129.65H72.318V132.2C72.7013 131.217 73.218 130.492 73.868 130.025C74.5346 129.542 75.3096 129.3 76.193 129.3L76.918 133.375C75.3346 133.375 74.168 133.55 73.418 133.9C72.6846 134.233 72.318 134.767 72.318 135.5V142H67.043V129.65ZM83.7252 142.2C82.6419 142.2 81.6252 141.917 80.6752 141.35C79.7419 140.767 78.9919 139.983 78.4252 139C77.8585 138 77.5752 136.892 77.5752 135.675C77.5752 134.475 77.8585 133.392 78.4252 132.425C78.9919 131.442 79.7502 130.675 80.7002 130.125C81.6502 129.575 82.6585 129.3 83.7252 129.3C84.5919 129.3 85.3919 129.542 86.1252 130.025C86.8752 130.508 87.4419 131.233 87.8252 132.2V129.3H93.0752V142H87.8252V139.675C86.9919 141.358 85.6252 142.2 83.7252 142.2ZM85.3502 138.25C86.0169 138.25 86.5835 138.017 87.0502 137.55C87.5335 137.067 87.7919 136.5 87.8252 135.85V135.65C87.7919 134.983 87.5252 134.417 87.0252 133.95C86.5419 133.483 85.9835 133.25 85.3502 133.25C84.6502 133.25 84.0502 133.5 83.5502 134C83.0669 134.483 82.8252 135.067 82.8252 135.75C82.8252 136.45 83.0752 137.042 83.5752 137.525C84.0752 138.008 84.6669 138.25 85.3502 138.25ZM102.257 142.2C100.941 142.2 99.7658 141.967 98.7324 141.5C97.7158 141.033 96.9241 140.375 96.3574 139.525C95.7908 138.675 95.5074 137.708 95.5074 136.625V129.475H100.657V136.55C100.657 137.1 100.807 137.533 101.107 137.85C101.424 138.15 101.816 138.3 102.282 138.3C102.732 138.3 103.099 138.15 103.382 137.85C103.682 137.533 103.832 137.1 103.832 136.55V129.475H108.882V136.625C108.882 137.725 108.599 138.7 108.032 139.55C107.482 140.383 106.707 141.033 105.707 141.5C104.707 141.967 103.557 142.2 102.257 142.2Z" fill="#A324F0"/>
</g>
<defs>
<filter id="filter0_d_110_12" x="0.625" y="97.072" width="199.328" height="58.653" filterUnits="userSpaceOnUse" color-interpolation-filters="sRGB">
<feFlood flood-opacity="0" result="BackgroundImageFix"/>
<feColorMatrix in="SourceAlpha" type="matrix" values="0 0 0 0 0 0 0 0 0 0 0 0 0 0 0 0 0 0 127 0" result="hardAlpha"/>
<feOffset dy="4"/>
<feGaussianBlur stdDeviation="2"/>
<feComposite in2="hardAlpha" operator="out"/>
<feColorMatrix type="matrix" values="0 0 0 0 0.920103 0 0 0 0 0.728281 0 0 0 0 0.9875 0 0 0 1 0"/>
<feBlend mode="normal" in2="BackgroundImageFix" result="effect1_dropShadow_110_12"/>
<feBlend mode="normal" in="SourceGraphic" in2="effect1_dropShadow_110_12" result="shape"/>
</filter>
<linearGradient id="paint0_linear_110_12" x1="58.6009" y1="0" x2="58.6009" y2="142" gradientUnits="userSpaceOnUse">
<stop offset="0.567708" stop-color="#A324F0"/>
<stop offset="1" stop-color="#A324F0" stop-opacity="0"/>
</linearGradient>
</defs>
</svg>
